<svg xmlns="http://www.w3.org/2000/svg" viewBox="0 0 150 150"><defs><style>.a{fill:#f2f2f2;}.b{fill:#b3b3b3;}.c{fill:#4d4d4d;}</style></defs><title>Asset 4</title><rect class="a" width="150" height="150"/><rect class="b" x="103" y="97.25" width="47" height="14"/><polygon points="150 95.25 103 95.25 103 97.25 150 97.25 150 95.25 150 95.25"/><polygon points="150 111.25 103 111.25 103 113.25 150 113.25 150 111.25 150 111.25"/><polygon points="150 37.25 103 37.25 103 39.25 150 39.25 150 37.25 150 37.25"/><polygon points="150 53.25 103 53.25 103 55.25 150 55.25 150 53.25 150 53.25"/><rect class="b" x="103" y="39.25" width="47" height="14"/><rect class="b" y="96.75" width="46" height="14"/><rect y="94.75" width="46" height="2"/><rect y="110.75" width="46" height="2"/><rect y="36.75" width="46" height="2"/><rect y="52.75" width="46" height="2"/><rect class="b" y="38.75" width="46" height="14"/><rect class="b" x="97.25" width="14" height="150"/><path d="M96.25,1V1m1-1h-2V150h2V0Z"/><path d="M112.25,1V1m1-1h-2V150h2V0Z"/><path d="M38.25,1V1m1-1h-2V150h2V0Z"/><path d="M54.25,1V1m1-1h-2V150h2V0Z"/><rect class="b" x="39.25" width="14" height="150"/><path class="c" d="M34.75,75c0,23.75-6.27,43-14,43l16.5,32h0V0h-1L20.75,32C28.48,32,34.75,51.25,34.75,75Z"/><path class="c" d="M115.46,74.5c0,23.75,6.18,43,13.79,43L113,150h0V0h0l16.25,31.5C121.64,31.5,115.46,50.75,115.46,74.5Z"/></svg>