<svg xmlns="http://www.w3.org/2000/svg" viewBox="0 0 150 150"><defs><style>.a{fill:#f2f2f2;}.b{fill:#b3b3b3;}.c{fill:#8cc63f;}</style></defs><title>Asset 6</title><path class="a" d="M37,95V62.51c-.21-.09-.42-.2-.64-.28A95,95,0,0,0,0,55V95Z"/><path class="a" d="M26.16,123.84a37.22,37.22,0,0,0-12-8A37,37,0,0,0,0,113v37H37a37,37,0,0,0-2.8-14.15A37.22,37.22,0,0,0,26.16,123.84Z"/><path class="a" d="M123.84,123.84A36.83,36.83,0,0,0,113,150h37V113a36.83,36.83,0,0,0-26.16,10.84Z"/><path class="a" d="M95,88.82V72.57a95.4,95.4,0,0,0-7.51,5.93A111.83,111.83,0,0,1,95,88.82Z"/><path class="a" d="M87.49,113h-25c-.09.21-.2.42-.28.64A95,95,0,0,0,55,150H95a95,95,0,0,0-7.23-36.36C87.69,113.42,87.58,113.21,87.49,113Z"/><path class="a" d="M62.51,78.5A95.4,95.4,0,0,0,55,72.57V88.82A111.83,111.83,0,0,1,62.51,78.5Z"/><path class="a" d="M75,91.74c-.83,1.07-1.64,2.16-2.43,3.26h4.86C76.64,93.9,75.83,92.81,75,91.74Z"/><path class="a" d="M88.82,55H61.18A113.67,113.67,0,0,1,75,65.49,113.67,113.67,0,0,1,88.82,55Z"/><path class="a" d="M113,62.51V95h37V55a95,95,0,0,0-36.36,7.23C113.42,62.31,113.21,62.42,113,62.51Z"/><path class="b" d="M89.67,113A95.75,95.75,0,0,1,95,130.42V113Z"/><path class="b" d="M55,70.13A98.4,98.4,0,0,1,63.79,77c2-2.37,4.11-4.67,6.31-6.86q1.66-1.66,3.41-3.26A111.72,111.72,0,0,0,57.41,55H55Z"/><path class="b" d="M76.27,90.11c1.25,1.6,2.45,3.22,3.6,4.89H95V92.59a112.68,112.68,0,0,0-9-12.78c-1.08,1-2.14,2-3.17,3A96.21,96.21,0,0,0,76.27,90.11Z"/><path class="b" d="M37,55H19.58A95.75,95.75,0,0,1,37,60.33Z"/><path d="M76.26,91.74c.58.75,1.14,1.51,1.68,2.26h0c-.54-.76-1.11-1.51-1.68-2.26h0m0-1.63c-.43.54-.85,1.09-1.27,1.63.83,1.07,1.64,2.16,2.43,3.26h2.44c-1.15-1.67-2.35-3.29-3.6-4.89Z"/><path d="M56,72.06c1.73,1.24,3.43,2.56,5.09,3.92q-2.48-2-5.09-3.92h0m-1-1.93v2.44a95.4,95.4,0,0,1,7.51,5.93c.42-.52.85-1,1.28-1.54A98.4,98.4,0,0,0,55,70.13Z"/><path d="M91.92,122.31c.81,2.7,1.51,5.44,2.08,8.21h0c-.57-2.77-1.27-5.52-2.08-8.22M89.67,113H87.49c.09.21.2.42.28.64A95,95,0,0,1,95,150V130.42A95.75,95.75,0,0,0,89.67,113ZM95,150v0Z"/><path d="M19.48,56c2.94.61,5.85,1.35,8.7,2.22-2.86-.87-5.77-1.61-8.71-2.22h0M0,55H0Zm19.57,0H0a95,95,0,0,1,36.34,7.23c.22.08.43.19.64.28V60.33A95.75,95.75,0,0,0,19.58,55Z"/><path d="M61.18,55H57.41a111.72,111.72,0,0,1,16.1,11.84c.49-.46,1-.91,1.49-1.35A113.67,113.67,0,0,0,61.18,55Z"/><path d="M87.37,79.93c.41.51.81,1,1.21,1.54-.4-.52-.8-1-1.21-1.54h0m.12-1.43c-.5.43-1,.86-1.5,1.31a112.68,112.68,0,0,1,9,12.78V88.82A111.83,111.83,0,0,0,87.49,78.5Z"/><path d="M17.25,116.14a39,39,0,0,1,7.24,4.8,38.55,38.55,0,0,0-7.24-4.8m11,8.4a38.59,38.59,0,0,1,6.33,9.6,38.78,38.78,0,0,0-6.33-9.6m6.34,9.61h0M12.32,113H0a37,37,0,0,1,14.15,2.8,37.22,37.22,0,0,1,12,8,37.22,37.22,0,0,1,8,12A37,37,0,0,1,37,150V137.68c-.29-.87-.6-1.74-1-2.59a39.12,39.12,0,0,0-8.46-12.67A39.12,39.12,0,0,0,14.91,114c-.85-.36-1.72-.67-2.59-1Z"/><path class="b" d="M27.58,122.42A39.12,39.12,0,0,1,36,135.09c.36.85.67,1.72,1,2.59V113H12.32c.87.29,1.74.6,2.59,1A39.12,39.12,0,0,1,27.58,122.42Z"/><path class="b" d="M79.9,70.1c2.2,2.19,4.3,4.49,6.31,6.86A98.4,98.4,0,0,1,95,70.13V55H92.59a111.72,111.72,0,0,0-16.1,11.84Q78.23,68.43,79.9,70.1Z"/><path class="b" d="M55,95H70.13c1.15-1.67,2.35-3.29,3.6-4.89a96.21,96.21,0,0,0-6.55-7.29c-1-1-2.09-2-3.17-3a112.68,112.68,0,0,0-9,12.78Z"/><path class="b" d="M130.42,55H113v5.33A95.75,95.75,0,0,1,130.42,55Z"/><path class="b" d="M55,130.42A95.75,95.75,0,0,1,60.33,113H55Z"/><path class="b" d="M75,88.49c2-2.46,4.16-4.83,6.41-7.08q1.61-1.6,3.29-3.13-3-3.51-6.21-6.77c-1.14-1.14-2.3-2.24-3.49-3.33-1.19,1.09-2.35,2.19-3.49,3.33q-3.24,3.26-6.21,6.77,1.68,1.53,3.29,3.13C70.84,83.66,73,86,75,88.49Z"/><path d="M65.39,79.72c.8.74,1.56,1.47,2.29,2.19-.72-.71-1.48-1.43-2.29-2.19h0m2.72,2.63c1.94,2,3.82,4,5.6,6.15h0c-1.81-2.17-3.69-4.24-5.6-6.16M65.3,78.28Q64.64,79,64,79.81c1.08,1,2.14,2,3.17,3a96.21,96.21,0,0,1,6.55,7.29c.43-.54.83-1.09,1.27-1.62-2-2.46-4.16-4.83-6.41-7.08Q67,79.81,65.3,78.28Z"/><path d="M76.49,66.84,75,68.18c1.19,1.09,2.35,2.19,3.49,3.33q3.24,3.26,6.21,6.77c.5-.45,1-.88,1.51-1.32-2-2.37-4.11-4.67-6.31-6.86q-1.66-1.66-3.41-3.26Z"/><path d="M58.18,122q-1.27,4.23-2.18,8.58h0c.6-2.89,1.33-5.76,2.18-8.57m4.33-9H60.33A95.75,95.75,0,0,0,55,130.42V150a95,95,0,0,1,7.23-36.34c.08-.22.19-.43.28-.64ZM55,150v0Z"/><path d="M94,72.06h0Q91.39,73.94,88.91,76c1.66-1.36,3.36-2.68,5.09-3.92m1-1.93A98.4,98.4,0,0,0,86.21,77c.43.51.86,1,1.28,1.54A95.4,95.4,0,0,1,95,72.57V70.13Z"/><path d="M113,62.51c.21-.09.42-.2.64-.28A95,95,0,0,1,150,55H130.42A95.75,95.75,0,0,0,113,60.33Z"/><path d="M73.74,91.74h0c-.57.75-1.13,1.5-1.68,2.26h0c.54-.75,1.1-1.51,1.68-2.26m0-1.63c-1.25,1.6-2.45,3.22-3.6,4.89h2.44c.79-1.1,1.6-2.19,2.43-3.26-.42-.54-.84-1.09-1.27-1.63Z"/><path d="M84.61,79.72h0c-.76.7-1.46,1.38-2.14,2,.69-.67,1.39-1.35,2.14-2m-2.92,2.83c-1.84,1.87-3.65,3.87-5.4,6h0c1.72-2.06,3.53-4.06,5.4-6m3-4.27Q83,79.81,81.41,81.41C79.16,83.66,77,86,75,88.49c.44.53.84,1.08,1.27,1.62a96.21,96.21,0,0,1,6.55-7.29c1-1,2.09-2,3.17-3q-.63-.77-1.29-1.53Z"/><path d="M75,88.49c-.44.53-.84,1.08-1.27,1.62.43.54.85,1.09,1.27,1.63.42-.54.84-1.09,1.27-1.63-.43-.54-.83-1.09-1.27-1.62Z"/><path d="M86.1,78.38h0M86.21,77c-.5.44-1,.87-1.51,1.32q.66.77,1.29,1.53c.49-.45,1-.88,1.5-1.31-.42-.52-.85-1-1.28-1.54Z"/><path d="M62.63,79.93h0c-.41.51-.81,1-1.21,1.54.4-.52.8-1,1.21-1.54m-.12-1.43A111.83,111.83,0,0,0,55,88.82v3.77a112.68,112.68,0,0,1,9-12.78c-.49-.45-1-.88-1.5-1.31Z"/><path d="M92.59,55H88.82A113.67,113.67,0,0,0,75,65.49c.5.44,1,.89,1.49,1.35A111.72,111.72,0,0,1,92.59,55Z"/><path d="M73.51,66.84q-1.74,1.59-3.41,3.26c-2.2,2.19-4.3,4.49-6.31,6.86.5.44,1,.87,1.51,1.32q3-3.51,6.21-6.77c1.14-1.14,2.3-2.24,3.49-3.33l-1.49-1.34Z"/><path d="M63.9,78.38h0M63.79,77c-.43.51-.86,1-1.28,1.54.5.43,1,.86,1.5,1.31q.63-.77,1.29-1.53c-.5-.45-1-.88-1.51-1.32Z"/><path d="M75,65.49c-.5.44-1,.89-1.49,1.35L75,68.18l1.49-1.34c-.49-.46-1-.91-1.49-1.35Z"/><path d="M133.79,115.62h0m0,0a38.27,38.27,0,0,0-8.55,5.56,38.27,38.27,0,0,1,8.55-5.56m-8.55,5.56h0m-3.44,3.35a38.8,38.8,0,0,0-6.31,9.55,38.8,38.8,0,0,1,6.31-9.55M150,113H137.68c-.87.29-1.74.6-2.59,1A39,39,0,0,0,114,135.09c-.36.85-.67,1.72-1,2.59V150a37,37,0,0,1,37-37Z"/><path class="b" d="M114,135.09A39,39,0,0,1,135.09,114c.85-.36,1.72-.67,2.59-1H113v24.68C113.29,136.81,113.6,135.94,114,135.09Z"/><path class="b" d="M71.17,97a94.23,94.23,0,0,0-7.78,14H86.6a93.28,93.28,0,0,0-7.77-14Z"/><path class="b" d="M37,109.31V97H14.66A53.29,53.29,0,0,1,21,99.18,55,55,0,0,1,37,109.31Z"/><path class="b" d="M129,99.18A53.29,53.29,0,0,1,135.34,97H113v12.31A55,55,0,0,1,129,99.18Z"/><path class="b" d="M81.22,97a96.88,96.88,0,0,1,7.57,14H95V97Z"/><path d="M78.83,97a93.28,93.28,0,0,1,7.77,14h2.19a96.88,96.88,0,0,0-7.57-14Z"/><path d="M35.88,111H37v-1.69A55,55,0,0,0,21,99.18,53.29,53.29,0,0,0,14.66,97H0a53.15,53.15,0,0,1,20.28,4A53.36,53.36,0,0,1,35.88,111Z"/><path class="b" d="M35.88,111a53.36,53.36,0,0,0-15.6-10A53.15,53.15,0,0,0,0,97v14Z"/><path class="b" d="M55,97v14h6.21a96.88,96.88,0,0,1,7.57-14Z"/><path d="M68.78,97a96.88,96.88,0,0,0-7.57,14h2.18a94.23,94.23,0,0,1,7.78-14Z"/><path d="M113,109.31V111h1.12A52.79,52.79,0,0,1,150,97H135.34A53.29,53.29,0,0,0,129,99.18,55,55,0,0,0,113,109.31Z"/><path class="b" d="M114.12,111H150V97a52.79,52.79,0,0,0-35.88,14Z"/><path d="M150,95H113v2h22.34A55.56,55.56,0,0,1,150,95Z"/><path d="M77.43,95H72.57c-.47.66-.95,1.32-1.4,2h7.66c-.45-.68-.93-1.34-1.4-2Z"/><path d="M37,95H0a55.56,55.56,0,0,1,14.66,2H37V95Z"/><path d="M95,95H79.87c.46.66.91,1.33,1.35,2H95V95Z"/><path d="M79.87,95H77.43c.47.66.95,1.32,1.4,2h2.39c-.44-.67-.89-1.34-1.35-2Z"/><path d="M0,95v2H14.66A55.56,55.56,0,0,0,0,95Z"/><path d="M70.13,95H55v2H68.78c.44-.67.89-1.34,1.35-2Z"/><path d="M72.57,95H70.13c-.46.66-.91,1.33-1.35,2h2.39c.45-.68.93-1.34,1.4-2Z"/><path d="M150,95a55.56,55.56,0,0,0-14.66,2H150V95Z"/><path d="M86.6,111H63.39c-.29.66-.6,1.33-.88,2h25c-.28-.67-.59-1.34-.89-2Z"/><path d="M95,111H88.79c.28.62.57,1.24.83,1.87a.69.69,0,0,1,0,.13H95v-2Z"/><path d="M88.79,111H86.6c.3.66.61,1.33.89,2h2.18a.69.69,0,0,0,0-.13c-.26-.63-.55-1.25-.83-1.87Z"/><path d="M0,111v2H12.32A39.11,39.11,0,0,0,0,111Z"/><path d="M37,111H35.88c.38.35.75.71,1.12,1.07V111Z"/><path d="M35.88,111H0a39.11,39.11,0,0,1,12.32,2H37v-.93c-.37-.36-.74-.72-1.12-1.07Z"/><path d="M61.21,111H55v2h5.33a.69.69,0,0,1,.05-.13c.26-.63.55-1.25.83-1.87Z"/><path d="M63.39,111H61.21c-.28.62-.57,1.24-.83,1.87a.69.69,0,0,0-.05.13h2.18c.28-.67.59-1.34.88-2Z"/><path d="M150,111a39.11,39.11,0,0,0-12.32,2H150v-2Z"/><path d="M114.12,111H113v1.07c.37-.36.74-.72,1.12-1.07Z"/><path d="M150,111H114.12c-.38.35-.75.71-1.12,1.07V113h24.68A39.11,39.11,0,0,1,150,111Z"/><path d="M.05,37h0Zm37,0H.09a113,113,0,0,1,21,2H37V37Z"/><polygon points="95 37 55 37 55 39 95 39 95 37 95 37"/><path d="M150,37h0Zm0,0H113v2h15.87a113,113,0,0,1,21-2Z"/><path d="M.05,37H0v2H21.13A113.49,113.49,0,0,0,.05,37Z"/><path d="M150,37a113.49,113.49,0,0,0-21.08,2H150V37Z"/><path d="M92,53H58c1.08.65,2.15,1.32,3.21,2H88.82c1.06-.68,2.13-1.35,3.21-2Z"/><path d="M55,53.58V55h2.41L55,53.58Z"/><path d="M0,53H0Zm37,0H0a97.53,97.53,0,0,1,19.55,2H37V53Z"/><path d="M0,53H0v2H19.58A97.7,97.7,0,0,0,0,53Z"/><path d="M58,53H55v.58L57.41,55h3.77c-1.06-.68-2.13-1.35-3.21-2Z"/><path d="M150,53h0Zm0,0H113v2h17.42A97.53,97.53,0,0,1,150,53Z"/><path d="M95,53.58,92.59,55H95V53.58Z"/><path d="M150,53a97.7,97.7,0,0,0-19.56,2H150V53Z"/><path d="M95,53H92c-1.08.65-2.15,1.32-3.21,2h3.77L95,53.58V53Z"/><path class="b" d="M58,53H92c1-.59,2-1.15,3-1.71V39H55V51.29C56,51.85,57,52.41,58,53Z"/><path class="b" d="M37,39H21.13A111.82,111.82,0,0,1,37,43.23Z"/><path class="b" d="M128.87,39H113v4.23A111.82,111.82,0,0,1,128.87,39Z"/><path class="b" d="M37,53V45.34A111.51,111.51,0,0,0,0,39V53Z"/><path d="M37,43.23A111.82,111.82,0,0,0,21.13,39H0a111.51,111.51,0,0,1,37,6.34Z"/><path d="M58,53c-1-.59-2-1.15-3-1.71V53Z"/><path class="b" d="M113,53h37V39a111.51,111.51,0,0,0-37,6.34Z"/><path d="M95,51.29c-1,.56-2,1.12-3,1.71h3Z"/><path d="M113,45.34A111.51,111.51,0,0,1,150,39H128.87A111.82,111.82,0,0,0,113,43.23Z"/><rect class="b" x="39" width="14" height="37"/><path class="b" d="M43.23,113H40.69c.63.69,1.24,1.39,1.83,2.11C42.74,114.4,43,113.7,43.23,113Z"/><path class="b" d="M53,92V71.17A93.28,93.28,0,0,0,39,63.4V95H51.29C51.85,94,52.41,93,53,92Z"/><path class="b" d="M53,68.78V55H39v6.21A96.88,96.88,0,0,1,53,68.78Z"/><path d="M53,71.17V68.78a96.88,96.88,0,0,0-14-7.57V63.4A93.28,93.28,0,0,1,53,71.17Z"/><path d="M40.69,113H39v1.12c1,1.07,1.9,2.17,2.79,3.31.23-.78.48-1.55.73-2.32C41.93,114.39,41.32,113.69,40.69,113Z"/><path class="b" d="M39,128.87a112.18,112.18,0,0,1,2.79-11.44c-.89-1.14-1.81-2.24-2.79-3.31Z"/><path class="b" d="M44,117A54.76,54.76,0,0,1,50.82,129,53.29,53.29,0,0,1,53,135.34V113H45.34C44.87,114.33,44.43,115.67,44,117Z"/><path d="M50.82,129A54.76,54.76,0,0,0,44,117q-.37,1.22-.72,2.43A52.84,52.84,0,0,1,49,129.72,53.15,53.15,0,0,1,53,150V135.34A53.29,53.29,0,0,0,50.82,129Z"/><path class="b" d="M43.29,119.45A111.63,111.63,0,0,0,39,150H53a53.15,53.15,0,0,0-4-20.28A52.84,52.84,0,0,0,43.29,119.45Z"/><path d="M53,92c-.59,1-1.15,2-1.71,3H53Z"/><path d="M43.23,113c-.25.7-.49,1.4-.71,2.11.51.63,1,1.27,1.49,1.91.42-1.35.86-2.69,1.33-4Z"/><path d="M41.79,117.43c.51.66,1,1.33,1.5,2q.35-1.22.72-2.43c-.49-.64-1-1.28-1.49-1.91C42.27,115.88,42,116.65,41.79,117.43Z"/><path d="M41.79,117.43A112.18,112.18,0,0,0,39,128.87V150a111.63,111.63,0,0,1,4.29-30.55C42.8,118.76,42.3,118.09,41.79,117.43Z"/><path class="b" d="M43.94,111c.53-1.43,1.07-2.85,1.66-4.26q2.05-5,4.6-9.74H39v14Z"/><path class="b" d="M53,97h-.53a108.84,108.84,0,0,0-5,10.51c-.48,1.15-.94,2.32-1.38,3.49H53Z"/><path d="M47.45,107.51a108.84,108.84,0,0,1,5-10.51H50.2q-2.54,4.75-4.6,9.74c-.59,1.41-1.13,2.83-1.66,4.26h2.13C46.51,109.83,47,108.66,47.45,107.51Z"/><path d="M51.29,95H39v2H50.2C50.55,96.33,50.92,95.66,51.29,95Z"/><path d="M53,96l-.53,1H53Z"/><path d="M53,96V95H51.29c-.37.66-.74,1.33-1.09,2h2.27Z"/><path d="M40.69,113h2.54c.23-.67.46-1.34.71-2H39v.22C39.58,111.8,40.14,112.4,40.69,113Z"/><path d="M39,111.22V113h1.69C40.14,112.4,39.58,111.8,39,111.22Z"/><path d="M46.07,111c-.25.66-.49,1.33-.73,2H53v-2Z"/><path d="M45.34,113c.24-.67.48-1.34.73-2H43.94c-.25.66-.48,1.33-.71,2Z"/><rect x="39" y="37" width="14" height="2"/><rect x="39" y="53" width="14" height="2"/><path class="b" d="M53,50.2V39H39v4.94c1.43.53,2.85,1.07,4.26,1.66Q48.24,47.66,53,50.2Z"/><path class="b" d="M53,52.47a108.84,108.84,0,0,0-10.51-5c-1.15-.48-2.32-.94-3.49-1.38V53H53Z"/><path d="M42.49,47.45a108.84,108.84,0,0,1,10.51,5V50.2q-4.76-2.54-9.74-4.6C41.85,45,40.43,44.47,39,43.94v2.13C40.17,46.51,41.34,47,42.49,47.45Z"/><path d="M54,73.09v0m-1-1.92V92c.65-1.08,1.32-2.15,2-3.21V72.57c-.66-.47-1.32-.95-2-1.4Z"/><path d="M54,1V1m1-1H53V37h2V0Z"/><path d="M54,56v0m1-1H53V68.78c.67.44,1.34.89,2,1.35V55Z"/><path d="M53,68.78v2.39c.68.45,1.34.93,2,1.4V70.13c-.66-.46-1.33-.91-2-1.35Z"/><path d="M55,92.59c-.48.8-1,1.6-1.42,2.41H55V92.59Z"/><path d="M54,114v0m1-1H53v22.34c.27,1,.5,1.93.72,2.9q.48-3.93,1.28-7.82V113Z"/><path d="M53,135.34V150a96.06,96.06,0,0,1,.72-11.73c-.22-1-.45-1.94-.72-2.9ZM53,150v0Z"/><path d="M55,130.42q-.8,3.89-1.28,7.82A55.81,55.81,0,0,1,55,150V130.42Z"/><path d="M53.72,138.24A96.55,96.55,0,0,0,53,150h2a55.81,55.81,0,0,0-1.28-11.76Z"/><path d="M54,92.31h0m1-3.49C54.32,89.88,53.65,91,53,92v3h.58c.47-.81.94-1.61,1.42-2.41V88.82Z"/><path d="M54,98v0m1-1H53v14h2V97Z"/><path d="M55,95H53.58L53,96v1h2V95Z"/><path d="M53.58,95H53v1l.58-1Z"/><polygon points="55 111 53 111 53 113 55 113 55 111 55 111"/><polygon points="55 37 53 37 53 39 55 39 55 37 55 37"/><path d="M54,53H53v2h2V53.58L54,53Z"/><path d="M55,53H54l1,.58V53Z"/><path d="M54,40v0m1-1H53V50.2c.67.35,1.34.72,2,1.09V39Z"/><path d="M53,52.47V53h1l-1-.53Z"/><path d="M54,51.88h0M53,50.2v2.27L54,53h1V51.29c-.66-.37-1.33-.74-2-1.09Z"/><path d="M38,64v0m-1-1.53V95h2V63.4c-.66-.3-1.33-.61-2-.89Z"/><path d="M38,1V1m1-1H37V37h2V0Z"/><path d="M38,56v0m1-1H37v5.33l.13.05c.63.26,1.25.55,1.87.83V55Z"/><path d="M37,60.33v2.18c.67.28,1.34.59,2,.89V61.21c-.62-.28-1.24-.57-1.87-.83L37,60.33Z"/><path d="M37,137.68v12.23q0-5.28.51-10.58-.24-.83-.51-1.65Zm0,12.23v0Z"/><path d="M39,113H37.93c.36.37.72.74,1.07,1.12V113Z"/><path d="M38,114.52v0M37.93,113H37v24.68q.27.82.51,1.65c.33-3.5.83-7,1.49-10.46V114.12c-.35-.38-.71-.75-1.07-1.12Z"/><path d="M37.51,139.33Q37,144.67,37,150h2a39.56,39.56,0,0,0-1.49-10.67Z"/><path d="M39,128.87c-.66,3.46-1.16,7-1.49,10.46A39.56,39.56,0,0,1,39,150V128.87Z"/><path d="M38,98v0m1-1H37v12.31c.6.55,1.2,1.11,1.78,1.69H39V97Z"/><path d="M37,109.31V111h1.78c-.58-.58-1.18-1.14-1.78-1.69Z"/><polygon points="39 95 37 95 37 97 39 97 39 95 39 95"/><path d="M39,111h-.22a1.14,1.14,0,0,0,.11.11l.11.11V111Z"/><path d="M38.78,111H37v1.07l.48.45.45.48H39v-1.78l-.11-.11a1.14,1.14,0,0,1-.11-.11Z"/><path d="M37,112.07V113h.93l-.45-.48-.48-.45Z"/><polygon points="39 37 37 37 37 39 39 39 39 37 39 37"/><polygon points="39 53 37 53 37 55 39 55 39 53 39 53"/><path d="M38,40v0m1-1H37v4.23c.67.23,1.34.46,2,.71V39Z"/><path d="M38,46.77v0m-1-1.43V53h2V46.07l-2-.73Z"/><path d="M37,43.23v2.11l2,.73V43.94c-.66-.25-1.33-.48-2-.71Z"/><path d="M112,1V1m1-1h-2V37h2V0Z"/><path d="M112,64v0m1-1.53c-.67.28-1.34.59-2,.89V95h2V62.51Z"/><path d="M112,56v0m1-1h-2v6.21c.62-.28,1.24-.57,1.87-.83l.13-.05V55Z"/><path d="M113,60.33l-.13.05c-.63.26-1.25.55-1.87.83V63.4c.66-.3,1.33-.61,2-.89V60.33Z"/><path d="M113,137.68q-.27.82-.51,1.65.51,5.29.51,10.58V137.68Zm0,12.23v0Z"/><path d="M112.49,139.33A39.56,39.56,0,0,0,111,150h2q0-5.33-.51-10.67Z"/><path d="M112.07,113H111v1.12c.35-.38.71-.75,1.07-1.12Z"/><path d="M112,114.52v0m1-1.52h-.93c-.36.37-.72.74-1.07,1.12v14.75c.66,3.46,1.16,7,1.49,10.46q.24-.83.51-1.65V113Z"/><path d="M111,128.87V150a39.56,39.56,0,0,1,1.49-10.67c-.33-3.5-.83-7-1.49-10.46Z"/><path d="M112,98v0m1-1h-2v14h.22c.58-.58,1.18-1.14,1.78-1.69V97Z"/><path d="M113,109.31c-.6.55-1.2,1.11-1.78,1.69H113v-1.69Z"/><polygon points="113 95 111 95 111 97 113 97 113 95 113 95"/><path d="M111.22,111H111v.22a1.14,1.14,0,0,0,.11-.11,1.14,1.14,0,0,0,.11-.11Z"/><path d="M113,111h-1.78a1.14,1.14,0,0,1-.11.11,1.14,1.14,0,0,1-.11.11V113h1.07l.45-.48.48-.45V111Z"/><path d="M113,112.07l-.48.45-.45.48H113v-.93Z"/><polygon points="113 37 111 37 111 39 113 39 113 37 113 37"/><polygon points="113 53 111 53 111 55 113 55 113 53 113 53"/><path d="M112,40v0m1-1h-2v4.94c.66-.25,1.33-.48,2-.71V39Z"/><path d="M112,46.77v0m1-1.43-2,.73V53h2V45.34Z"/><path d="M113,43.23c-.67.23-1.34.46-2,.71v2.13l2-.73V43.23Z"/><path d="M96,1V1m1-1H95V37h2V0Z"/><path d="M96,73.09v0m1-1.92c-.68.45-1.34.93-2,1.4V88.82c.68,1.06,1.35,2.13,2,3.21V71.17Z"/><path d="M95,92.59V95h1.42c-.47-.81-.94-1.61-1.42-2.41Z"/><path d="M96,114v0m1-1H95v17.42q.8,3.89,1.28,7.82c.22-1,.45-1.94.72-2.9V113Z"/><path d="M95,130.42V150a55.81,55.81,0,0,1,1.28-11.76q-.48-3.93-1.28-7.82Z"/><path d="M96,92.31h0m-1-3.49v3.77c.48.8,1,1.6,1.42,2.41H97V92c-.65-1.08-1.32-2.15-2-3.21Z"/><path d="M96,56v0m1-1H95V70.13c.66-.46,1.33-.91,2-1.35V55Z"/><path d="M97,68.78c-.67.44-1.34.89-2,1.35v2.44c.66-.47,1.32-.95,2-1.4V68.78Z"/><path d="M97,135.34c-.27,1-.5,1.93-.72,2.9A96.06,96.06,0,0,1,97,150V135.34ZM97,150v0Z"/><path d="M96.28,138.24A55.81,55.81,0,0,0,95,150h2a96.55,96.55,0,0,0-.72-11.76Z"/><path d="M96,98v0m1-1H95v14h2V97Z"/><path d="M96.42,95H95v2h2V96l-.58-1Z"/><path d="M97,95h-.58L97,96V95Z"/><polygon points="97 111 95 111 95 113 97 113 97 111 97 111"/><polygon points="97 37 95 37 95 39 97 39 97 37 97 37"/><path d="M97,53H96l-1,.58V55h2V53Z"/><path d="M96,53H95v.58L96,53Z"/><path d="M96,40v0m1-1H95V51.29c.66-.37,1.33-.74,2-1.09V39Z"/><path d="M97,52.47,96,53h1v-.53Z"/><path d="M96,51.88h0m1-1.68c-.67.35-1.34.72-2,1.09V53h1l1-.53V50.2Z"/><path class="b" d="M109.31,113h-2.54c.25.7.49,1.4.71,2.11C108.07,114.39,108.68,113.69,109.31,113Z"/><path class="b" d="M98.71,95H111V63.4a93.28,93.28,0,0,0-14,7.77V92C97.59,93,98.15,94,98.71,95Z"/><rect class="b" x="97" width="14" height="37"/><path class="b" d="M97,113v22.34A53.29,53.29,0,0,1,99.18,129,54.76,54.76,0,0,1,106,117c-.42-1.35-.86-2.69-1.33-4Z"/><path d="M106.77,113h-2.11c.47,1.33.91,2.67,1.33,4,.49-.64,1-1.28,1.49-1.91C107.26,114.4,107,113.7,106.77,113Z"/><path d="M98.71,95c-.56-1-1.12-2-1.71-3v3Z"/><path class="b" d="M97,68.78a96.88,96.88,0,0,1,14-7.57V55H97Z"/><path d="M111,63.4V61.21a96.88,96.88,0,0,0-14,7.57v2.39A93.28,93.28,0,0,1,111,63.4Z"/><path d="M108.21,117.43c.89-1.14,1.81-2.24,2.79-3.31V113h-1.69c-.63.69-1.24,1.39-1.83,2.11C107.73,115.88,108,116.65,108.21,117.43Z"/><path d="M106.71,119.45q-.34-1.22-.72-2.43A54.76,54.76,0,0,0,99.18,129,53.29,53.29,0,0,0,97,135.34V150a52.5,52.5,0,0,1,9.71-30.55Z"/><path d="M107.48,115.11c-.51.63-1,1.27-1.49,1.91q.38,1.22.72,2.43c.49-.69,1-1.36,1.5-2C108,116.65,107.73,115.88,107.48,115.11Z"/><path class="b" d="M108.21,117.43A112.18,112.18,0,0,1,111,128.87V114.12C110,115.19,109.1,116.29,108.21,117.43Z"/><path class="b" d="M106.71,119.45A52.5,52.5,0,0,0,97,150h14A111.63,111.63,0,0,0,106.71,119.45Z"/><path d="M108.21,117.43c-.51.66-1,1.33-1.5,2A111.63,111.63,0,0,1,111,150V128.87A112.18,112.18,0,0,0,108.21,117.43Z"/><path class="b" d="M104.4,106.74c.59,1.41,1.13,2.83,1.66,4.26H111V97H99.8Q102.34,101.76,104.4,106.74Z"/><path class="b" d="M97,111h6.93c-.44-1.17-.9-2.34-1.38-3.49a108.84,108.84,0,0,0-5-10.51H97Z"/><path d="M102.55,107.51c.48,1.15.94,2.32,1.38,3.49h2.13c-.53-1.43-1.07-2.85-1.66-4.26q-2.06-5-4.6-9.74H97.53A108.84,108.84,0,0,1,102.55,107.51Z"/><path d="M99.8,97H111V95H98.71C99.08,95.66,99.45,96.33,99.8,97Z"/><path d="M97.53,97,97,96v1Z"/><path d="M97,96l.53,1H99.8c-.35-.67-.72-1.34-1.09-2H97Z"/><path d="M109.31,113c.55-.6,1.11-1.2,1.69-1.78V111h-4.94c.25.66.48,1.33.71,2Z"/><path d="M103.93,111H97v2h7.66C104.42,112.33,104.18,111.66,103.93,111Z"/><path d="M104.66,113h2.11c-.23-.67-.46-1.34-.71-2h-2.13C104.18,111.66,104.42,112.33,104.66,113Z"/><path d="M111,111.22c-.58.58-1.14,1.18-1.69,1.78H111Z"/><rect x="97" y="37" width="14" height="2"/><rect x="97" y="53" width="14" height="2"/><path class="b" d="M106.74,45.6c1.41-.59,2.83-1.13,4.26-1.66V39H97V50.2Q101.76,47.66,106.74,45.6Z"/><path class="b" d="M111,53V46.07c-1.17.44-2.34.9-3.49,1.38a108.84,108.84,0,0,0-10.51,5V53Z"/><path d="M97,50.2v2.27a108.84,108.84,0,0,1,10.51-5c1.15-.48,2.32-.94,3.49-1.38V43.94c-1.43.53-2.85,1.07-4.26,1.66Q101.76,47.66,97,50.2Z"/><polygon class="a" points="37 37 37 2 37 1 37 0 0 0 0 37 37 37"/><polygon class="a" points="113 1 113 2.5 113 37 150 37 150 0 113 0 113 1"/><polygon class="a" points="95 37 95 2.5 95 1 95 0 55 0 55 1 55 2 55 37 95 37"/><path class="c" d="M30,120h90a30,30,0,0,1,30,30v0a0,0,0,0,1,0,0H0a0,0,0,0,1,0,0v0A30,30,0,0,1,30,120Z"/></svg>