<svg xmlns="http://www.w3.org/2000/svg" viewBox="0 0 150 150"><defs><style>.a{fill:#f2f2f2;}.b{fill:#b3b3b3;}</style></defs><title>Asset 1</title><path class="a" d="M0,150H150V113a113.17,113.17,0,0,1-43.26-8.6A113.07,113.07,0,0,1,70.1,79.9,113.07,113.07,0,0,1,45.6,43.26,113.17,113.17,0,0,1,37,0H0Z"/><path class="a" d="M123.84,26.16a37.22,37.22,0,0,0,12,8A37,37,0,0,0,150,37V0H113a37,37,0,0,0,2.8,14.15A37.22,37.22,0,0,0,123.84,26.16Z"/><path class="a" d="M82.82,67.18a95.26,95.26,0,0,0,30.82,20.59A95,95,0,0,0,150,95V55a55,55,0,0,1-21-4.18,55.06,55.06,0,0,1-17.85-11.93A55.06,55.06,0,0,1,99.18,21,55,55,0,0,1,95,0H55a95,95,0,0,0,7.23,36.36A95.26,95.26,0,0,0,82.82,67.18Z"/><path class="b" d="M71.51,78.49a111.2,111.2,0,0,0,36,24.06A110.87,110.87,0,0,0,150,111V97a97.21,97.21,0,0,1-37.13-7.38,97.13,97.13,0,0,1-31.46-21,97.13,97.13,0,0,1-21-31.46A97.21,97.21,0,0,1,53,0H39a110.87,110.87,0,0,0,8.45,42.49A111.2,111.2,0,0,0,71.51,78.49Z"/><path d="M54,1A96.41,96.41,0,0,0,61.3,36.75,96.8,96.8,0,0,0,82.12,67.88,96.32,96.32,0,0,0,96,79.36,96.32,96.32,0,0,1,82.12,67.88,96.8,96.8,0,0,1,61.3,36.75,96.41,96.41,0,0,1,54,1h0m60.05,88A96.46,96.46,0,0,0,149,96h0a96.46,96.46,0,0,1-34.94-7M55,0H53a97.21,97.21,0,0,0,7.38,37.13,97.13,97.13,0,0,0,21,31.46,97.13,97.13,0,0,0,31.46,21A97.16,97.16,0,0,0,150,97h0V95h0a95.09,95.09,0,0,1-36.35-7.23A95.26,95.26,0,0,1,82.82,67.18,95.26,95.26,0,0,1,62.23,36.36,95,95,0,0,1,55,0Z"/><path d="M38,1a112.8,112.8,0,0,0,7.94,40.44A112.59,112.59,0,0,1,38,1h0M54.71,58.83A112.57,112.57,0,0,0,70.8,79.2,112.85,112.85,0,0,0,86.19,92,112.85,112.85,0,0,1,70.8,79.2,112.57,112.57,0,0,1,54.71,58.83m54.47,45.48A113,113,0,0,0,149,112h0a112.75,112.75,0,0,1-39.82-7.69M39,0H37a113.17,113.17,0,0,0,8.6,43.26A113.07,113.07,0,0,0,70.1,79.9a113.07,113.07,0,0,0,36.64,24.5A113.11,113.11,0,0,0,150,113H150v-2h0a111.05,111.05,0,0,1-42.45-8.45,111.2,111.2,0,0,1-36-24.06,111.2,111.2,0,0,1-24.06-36A110.87,110.87,0,0,1,39,0Z"/><path d="M112,1a37.88,37.88,0,0,0,2.72,13.19A37.88,37.88,0,0,1,112,1h0m4.32,16.64h0m0,0a38.42,38.42,0,0,0,6.79,9.22,38.4,38.4,0,0,0,11.11,7.71,38.4,38.4,0,0,1-11.11-7.71,38.42,38.42,0,0,1-6.79-9.22m17.9,16.94h0m1.61.69A37.87,37.87,0,0,0,149,38h0a37.92,37.92,0,0,1-13.15-2.7M113,0h-2a38.84,38.84,0,0,0,3,14.91,39.12,39.12,0,0,0,8.46,12.67A39.12,39.12,0,0,0,135.09,36,38.84,38.84,0,0,0,150,39V37a37,37,0,0,1-14.15-2.8,37.22,37.22,0,0,1-12-8,37.22,37.22,0,0,1-8-12A37,37,0,0,1,113,0Z"/><path d="M96,1a53.63,53.63,0,0,0,4.09,19.66,54.29,54.29,0,0,0,11.72,17.52A54.4,54.4,0,0,0,129.34,49.9,53.63,53.63,0,0,0,149,54h0a53.63,53.63,0,0,1-19.66-4.09,54.29,54.29,0,0,1-17.52-11.72A54.29,54.29,0,0,1,100.1,20.66,53.63,53.63,0,0,1,96,1h0m1-1H95a55,55,0,0,0,4.18,21,55.06,55.06,0,0,0,11.93,17.85A55.06,55.06,0,0,0,129,50.82,55,55,0,0,0,150,55V53a53.15,53.15,0,0,1-20.28-4,53.38,53.38,0,0,1-17.2-11.5A53.38,53.38,0,0,1,101,20.28,53.15,53.15,0,0,1,97,0Z"/><path class="b" d="M112.52,37.48A53.38,53.38,0,0,0,129.72,49,53.15,53.15,0,0,0,150,53V39a38.84,38.84,0,0,1-14.91-3,39.12,39.12,0,0,1-12.67-8.46A39.12,39.12,0,0,1,114,14.91,38.84,38.84,0,0,1,111,0H97a53.15,53.15,0,0,0,4,20.28A53.38,53.38,0,0,0,112.52,37.48Z"/></svg>