<?xml version="1.0" encoding="UTF-8"?>
<svg width="150px" height="150px" viewBox="0 0 150 150" version="1.1" xmlns="http://www.w3.org/2000/svg" xmlns:xlink="http://www.w3.org/1999/xlink">
    <!-- Generator: Sketch 64 (93537) - https://sketch.com -->
    <title>Group</title>
    <desc>Created with Sketch.</desc>
    <g id="Page-1" stroke="none" stroke-width="1" fill="none" fill-rule="evenodd">
        <g id="Artboard-Copy" transform="translate(-28.000000, -18.000000)">
            <g id="Group" transform="translate(28.000000, 18.000000)">
                <rect id="Rectangle" fill="#F2F2F2" x="0" y="0" width="150" height="150"></rect>
                <path d="M75.0979795,66 L89.4396821,88.627417 L82.7748165,88.627 L94.8178205,107.627417 L86.2513175,107.627 L100.195959,129.627417 L82,129.627 L82,141.627417 L69,141.627417 L69,129.627 L50,129.627417 L63.9433995,107.627 L55.3781385,107.627417 L67.4199005,88.627 L60.7562769,88.627417 L75.0979795,66 Z M117.09798,8 L131.439682,30.627417 L124.774816,30.627 L136.817821,49.627417 L128.251318,49.627 L142.195959,71.627417 L123.999,71.627 L124,83.627417 L111,83.627417 L110.999,71.627 L92,71.627417 L105.9434,49.627 L97.3781385,49.627417 L109.419901,30.627 L102.756277,30.627417 L117.09798,8 Z M33.0979795,8 L47.4396821,30.627417 L40.7748165,30.627 L52.8178205,49.627417 L44.2513175,49.627 L58.195959,71.627417 L39.999,71.627 L40,83.627417 L27,83.627417 L26.999,71.627 L8,71.627417 L21.9433995,49.627 L13.3781385,49.627417 L25.4199005,30.627 L18.7562769,30.627417 L33.0979795,8 Z" id="Shape" fill="#6A8D85"></path>
            </g>
        </g>
    </g>
</svg>