<svg xmlns="http://www.w3.org/2000/svg" viewBox="0 0 150 150"><defs><style>.a{fill:#f2f2f2;}.b{fill:#fff;}.c{fill:#b3b3b3;}</style></defs><title>Asset 3</title><path class="a" d="M62.51,37h25c.09-.21.2-.42.28-.64A95,95,0,0,0,95,0H55a95,95,0,0,0,7.23,36.36C62.31,36.58,62.42,36.79,62.51,37Z"/><path class="a" d="M62.51,71.5A113.59,113.59,0,0,1,51.29,55H0V95a95,95,0,0,0,36.36-7.23A95.05,95.05,0,0,0,62.51,71.5Z"/><path class="a" d="M61.18,95H88.82A113.67,113.67,0,0,1,75,84.51,113.67,113.67,0,0,1,61.18,95Z"/><path class="a" d="M75,58.26c.83-1.07,1.64-2.16,2.43-3.26H72.57C73.36,56.1,74.17,57.19,75,58.26Z"/><path class="a" d="M107.48,34.89c-.22.71-.46,1.41-.71,2.11h2.54C108.68,36.31,108.07,35.61,107.48,34.89Z"/><path class="a" d="M123.84,26.16a37.22,37.22,0,0,0,12,8A37,37,0,0,0,150,37V0H113a37,37,0,0,0,2.8,14.15A37.22,37.22,0,0,0,123.84,26.16Z"/><path class="b" d="M40.69,37h2.54c-.25-.7-.49-1.4-.71-2.11C41.93,35.61,41.32,36.31,40.69,37Z"/><path class="a" d="M26.16,26.16a37.22,37.22,0,0,0,8-12A37,37,0,0,0,37,0H0V37a37,37,0,0,0,14.15-2.8A37.22,37.22,0,0,0,26.16,26.16Z"/><rect class="a" y="113" width="150" height="37"/><path class="a" d="M98.71,55A113.59,113.59,0,0,1,87.49,71.5a95.05,95.05,0,0,0,26.15,16.27A95,95,0,0,0,150,95V55Z"/><path class="c" d="M76.27,59.89a96.21,96.21,0,0,0,6.55,7.29c1,1,2.09,2,3.17,3A112.88,112.88,0,0,0,96.42,55H79.87C78.72,56.67,77.52,58.29,76.27,59.89Z"/><path class="c" d="M70.1,79.9c-2.2-2.19-4.3-4.49-6.31-6.86A97.32,97.32,0,0,1,37.13,89.62,96.18,96.18,0,0,1,19.58,95H57.41a111.72,111.72,0,0,0,16.1-11.84Q71.77,81.57,70.1,79.9Z"/><path class="c" d="M106,33A54.76,54.76,0,0,1,99.18,21a54,54,0,0,1-2.9-9.28A96.5,96.5,0,0,1,89.67,37h15C105.13,35.67,105.57,34.33,106,33Z"/><path d="M77.94,56c-.54.75-1.1,1.51-1.68,2.26h0c.57-.74,1.13-1.5,1.68-2.26h0m1.93-1H77.43c-.79,1.1-1.6,2.19-2.43,3.26.42.54.84,1.09,1.27,1.63,1.25-1.6,2.45-3.22,3.6-4.89Z"/><path d="M95.27,11.79h0a95.86,95.86,0,0,1-5.18,21.39,96.35,96.35,0,0,0,5.18-21.4M95,0a95,95,0,0,1-7.23,36.36c-.08.22-.19.43-.28.64h2.18a96.5,96.5,0,0,0,6.61-25.24A55.81,55.81,0,0,1,95,0Z"/><path d="M35.46,89.22a95,95,0,0,1-16,4.78h0a95,95,0,0,0,16-4.78M62.51,71.5A95.05,95.05,0,0,1,36.36,87.77,95,95,0,0,1,0,95H19.58a96.18,96.18,0,0,0,17.55-5.38A97.32,97.32,0,0,0,63.79,73c-.43-.51-.86-1-1.28-1.54ZM0,95H0Z"/><path d="M106.36,35.1h0v0M106,33c-.42,1.35-.86,2.69-1.33,4h2.11c.25-.7.49-1.4.71-2.11-.51-.63-1-1.27-1.49-1.91Z"/><path d="M89.73,67c-.77,1-1.56,2-2.36,3h0c.8-1,1.59-2,2.36-3m9-12H96.42A112.88,112.88,0,0,1,86,70.19c.49.45,1,.88,1.5,1.31A113.59,113.59,0,0,0,98.71,55Z"/><path d="M73.51,83.16A111.72,111.72,0,0,1,57.41,95h3.77A113.67,113.67,0,0,0,75,84.51c-.5-.44-1-.89-1.49-1.35Z"/><path d="M34.61,15.71a38.4,38.4,0,0,1-7.74,11.16,37.65,37.65,0,0,1-5.47,4.52,37.65,37.65,0,0,0,5.47-4.52,38.4,38.4,0,0,0,7.74-11.16M37,0a37,37,0,0,1-2.8,14.15,37.22,37.22,0,0,1-8,12,37.22,37.22,0,0,1-12,8A37,37,0,0,1,0,37H12.32c.87-.29,1.74-.6,2.59-1a39.12,39.12,0,0,0,12.67-8.46A39.12,39.12,0,0,0,36,14.91a37.27,37.27,0,0,0,1.47-4.24Q37,5.33,37,0Z"/><path d="M41.39,34.66h0c-.37.44-.76.89-1.15,1.33h0c.39-.44.78-.89,1.16-1.34m.4-2.09A52.55,52.55,0,0,1,37.93,37h2.76c.63-.69,1.24-1.39,1.83-2.11-.25-.77-.5-1.54-.73-2.32Z"/><path class="c" d="M37.51,10.67A37.27,37.27,0,0,1,36,14.91a39.12,39.12,0,0,1-8.46,12.67A39.12,39.12,0,0,1,14.91,36c-.85.36-1.72.67-2.59,1H37.93a52.55,52.55,0,0,0,3.86-4.43A113.11,113.11,0,0,1,37.51,10.67Z"/><path class="c" d="M73.73,59.89c-1.25-1.6-2.45-3.22-3.6-4.89H53.58A112.88,112.88,0,0,0,64,70.19c1.08-1,2.14-2,3.17-3A96.21,96.21,0,0,0,73.73,59.89Z"/><path class="c" d="M44,33c.42,1.35.86,2.69,1.33,4h15a96.5,96.5,0,0,1-6.61-25.24A54,54,0,0,1,50.82,21,54.76,54.76,0,0,1,44,33Z"/><path class="c" d="M86.21,73c-2,2.37-4.11,4.67-6.31,6.86q-1.66,1.66-3.41,3.26A111.72,111.72,0,0,0,92.59,95h37.83a96.18,96.18,0,0,1-17.55-5.38A97.32,97.32,0,0,1,86.21,73Z"/><path class="c" d="M75,61.51c-2,2.46-4.16,4.83-6.41,7.08Q67,70.19,65.3,71.72q3,3.51,6.21,6.77c1.14,1.14,2.3,2.24,3.49,3.33,1.19-1.09,2.35-2.19,3.49-3.33q3.24-3.26,6.21-6.77Q83,70.19,81.41,68.59C79.16,66.34,77,64,75,61.51Z"/><path d="M73.71,61.49h0c-1.85,2.21-3.8,4.36-5.83,6.38-.79.8-1.61,1.59-2.49,2.4h0c.89-.83,1.71-1.62,2.49-2.4,2-2,4-4.13,5.83-6.39m0-1.6a96.21,96.21,0,0,1-6.55,7.29c-1,1-2.09,2-3.17,3q.63.77,1.29,1.53,1.68-1.53,3.29-3.13C70.84,66.34,73,64,75,61.51c-.44-.53-.84-1.08-1.27-1.62Z"/><path d="M84.8,73.15h0c-.13.15-.26.31-.4.46.14-.15.27-.31.4-.46m-.4.46h0m-2.88,3.18h0m0,0c-.76.82-1.54,1.62-2.31,2.4l-.4.39.4-.39c.77-.78,1.55-1.58,2.31-2.4m3.19-5.08q-3,3.51-6.21,6.77c-1.14,1.14-2.3,2.24-3.49,3.33l1.49,1.34q1.74-1.59,3.41-3.26c2.2-2.19,4.3-4.49,6.31-6.86-.5-.44-1-.87-1.51-1.32Z"/><path d="M50,20.33l-.14.33a53.85,53.85,0,0,1-5.52,10.09h0A53.93,53.93,0,0,0,49.9,20.66l.14-.33M53,0a53.15,53.15,0,0,1-4,20.28,52.84,52.84,0,0,1-5.69,10.27q.35,1.21.72,2.43A55,55,0,0,0,50.82,21a54,54,0,0,0,2.9-9.28A96.55,96.55,0,0,1,53,0Z"/><path class="c" d="M43.29,30.55A52.84,52.84,0,0,0,49,20.28,53.15,53.15,0,0,0,53,0H39A111.63,111.63,0,0,0,43.29,30.55Z"/><path d="M115.29,89.52A96.69,96.69,0,0,0,130.53,94h0a95.65,95.65,0,0,1-15.23-4.48m-27.8-18c-.42.52-.85,1-1.28,1.54a97.32,97.32,0,0,0,26.66,16.58A96.18,96.18,0,0,0,130.42,95H150a95,95,0,0,1-36.34-7.23A95.05,95.05,0,0,1,87.49,71.5ZM150,95h0Z"/><path d="M72.06,56c.55.76,1.11,1.52,1.68,2.26h0c-.58-.75-1.14-1.51-1.68-2.26h0m.51-1H70.13c1.15,1.67,2.35,3.29,3.6,4.89.43-.54.85-1.09,1.27-1.63-.83-1.07-1.64-2.16-2.43-3.26Z"/><path d="M54.73,11.79a96.94,96.94,0,0,0,5.15,21.33A96.31,96.31,0,0,1,54.73,11.8h0M55,0a55.81,55.81,0,0,1-1.28,11.76A96.5,96.5,0,0,0,60.33,37h2.18c-.09-.21-.2-.42-.28-.64A95,95,0,0,1,55,0Z"/><path d="M76.29,61.49c1.88,2.26,3.84,4.4,5.83,6.39.78.78,1.6,1.57,2.49,2.4h0c-.88-.81-1.7-1.6-2.49-2.4-2-2-4-4.17-5.83-6.38h0m0-1.6c-.43.54-.83,1.09-1.27,1.62,2,2.46,4.16,4.83,6.41,7.08q1.61,1.6,3.29,3.13Q85.36,71,86,70.19c-1.08-1-2.14-2-3.17-3a96.21,96.21,0,0,1-6.55-7.29Z"/><path d="M75,58.26c-.42.54-.84,1.09-1.27,1.63.43.54.83,1.09,1.27,1.62.44-.53.84-1.08,1.27-1.62-.43-.54-.85-1.09-1.27-1.63Z"/><path d="M86.1,71.62h0M86,70.19q-.63.77-1.29,1.53c.5.45,1,.88,1.51,1.32.43-.51.86-1,1.28-1.54-.5-.43-1-.86-1.5-1.31Z"/><path d="M55,0H53a96.55,96.55,0,0,0,.72,11.76A55.81,55.81,0,0,0,55,0Z"/><path d="M60.22,67c.79,1.05,1.59,2.09,2.41,3.11h0C61.81,69.05,61,68,60.22,67M53.58,55H51.29A113.59,113.59,0,0,0,62.51,71.5c.5-.43,1-.86,1.5-1.31A112.88,112.88,0,0,1,53.58,55Z"/><path d="M43.64,35.1h0M44,33c-.49.64-1,1.28-1.49,1.91.22.71.46,1.41.71,2.11h2.11c-.47-1.33-.91-2.67-1.33-4Z"/><path d="M76.49,83.16c-.49.46-1,.91-1.49,1.35A113.67,113.67,0,0,0,88.82,95h3.77a111.72,111.72,0,0,1-16.1-11.84Z"/><path d="M65.2,73.15l.32.38-.32-.38h0m4.68,5.12h0m0,0,.91.92.23.22-.23-.22-.91-.92M65.3,71.72c-.5.45-1,.88-1.51,1.32,2,2.37,4.11,4.67,6.31,6.86q1.66,1.66,3.41,3.26L75,81.82c-1.19-1.09-2.35-2.19-3.49-3.33q-3.24-3.26-6.21-6.77Z"/><path d="M63.9,71.62h0M64,70.19c-.49.45-1,.88-1.5,1.31.42.52.85,1,1.28,1.54.5-.44,1-.87,1.51-1.32Q64.64,71,64,70.19Z"/><path d="M75,81.82l-1.49,1.34c.49.46,1,.91,1.49,1.35.5-.44,1-.89,1.49-1.35L75,81.82Z"/><path d="M39,0H37q0,5.32.51,10.67A39.56,39.56,0,0,0,39,0Z"/><path d="M42.9,32.77h0v0h0m.39-2.22c-.49.69-1,1.36-1.5,2,.23.78.48,1.55.73,2.32.51-.63,1-1.27,1.49-1.91q-.37-1.21-.72-2.43Z"/><path d="M40.14,21.8c.57,2.87,1.26,5.73,2,8.56h0c-.79-2.82-1.48-5.68-2-8.57M39,0a39.56,39.56,0,0,1-1.49,10.67,113.11,113.11,0,0,0,4.28,21.9c.51-.66,1-1.33,1.5-2A111.63,111.63,0,0,1,39,0Z"/><path d="M115.49,15.94a38.59,38.59,0,0,0,7.64,10.93,38.23,38.23,0,0,0,6.65,5.3,38.23,38.23,0,0,1-6.65-5.3,38.59,38.59,0,0,1-7.64-10.93m14.3,16.24h0M113,0q0,5.32-.51,10.67A37.27,37.27,0,0,0,114,14.91a39.12,39.12,0,0,0,8.46,12.67A39.12,39.12,0,0,0,135.09,36c.85.36,1.72.67,2.59,1H150a37,37,0,0,1-14.15-2.8,37.22,37.22,0,0,1-12-8,37.22,37.22,0,0,1-8-12A37,37,0,0,1,113,0Z"/><path d="M113,0h-2a39.56,39.56,0,0,0,1.49,10.67Q113,5.33,113,0Z"/><path d="M108.61,34.66c.38.45.77.9,1.16,1.34h0c-.39-.44-.78-.89-1.15-1.33h0m-.4-2.09c-.23.78-.48,1.55-.73,2.32.59.72,1.2,1.42,1.83,2.11h2.76a52.55,52.55,0,0,1-3.86-4.43Z"/><path d="M100.24,21a53.77,53.77,0,0,0,5.38,9.74h0A54,54,0,0,1,100.24,21M97,0a96.55,96.55,0,0,1-.72,11.76A54,54,0,0,0,99.18,21,55,55,0,0,0,106,33q.38-1.21.72-2.43A52.84,52.84,0,0,1,101,20.28,53.15,53.15,0,0,1,97,0Z"/><path d="M97,0H95a55.81,55.81,0,0,0,1.28,11.76A96.55,96.55,0,0,0,97,0Z"/><path d="M107.1,32.77h0v0h0m-.39-2.22q-.34,1.21-.72,2.43c.49.64,1,1.28,1.49,1.91.25-.77.5-1.54.73-2.32-.51-.66-1-1.33-1.5-2Z"/><path class="c" d="M137.68,37c-.87-.29-1.74-.6-2.59-1a39.12,39.12,0,0,1-12.67-8.46A39.12,39.12,0,0,1,114,14.91a37.27,37.27,0,0,1-1.47-4.24,113.11,113.11,0,0,1-4.28,21.9A52.55,52.55,0,0,0,112.07,37Z"/><path class="c" d="M106.71,30.55A111.63,111.63,0,0,0,111,0H97a53.15,53.15,0,0,0,4,20.28A52.84,52.84,0,0,0,106.71,30.55Z"/><path d="M109.89,21.61Q109,26,107.81,30.37h0c.81-2.89,1.51-5.81,2.08-8.75M111,0a111.63,111.63,0,0,1-4.29,30.55c.49.69,1,1.36,1.5,2a113.11,113.11,0,0,0,4.28-21.9A39.56,39.56,0,0,1,111,0Z"/><path class="c" d="M92,97H58a111.81,111.81,0,0,1-14.71,7.4A112.44,112.44,0,0,1,21.13,111H128.87a112.44,112.44,0,0,1-22.13-6.6A111.81,111.81,0,0,1,92,97Z"/><path class="c" d="M54,97H0v14a110.87,110.87,0,0,0,42.49-8.45A108.14,108.14,0,0,0,54,97Z"/><path d="M43.26,104.4A111.81,111.81,0,0,0,58,97H54a108.14,108.14,0,0,1-11.47,5.55A110.87,110.87,0,0,1,0,111H21.13A112.44,112.44,0,0,0,43.26,104.4Z"/><path class="c" d="M96,97a108.14,108.14,0,0,0,11.47,5.55A110.87,110.87,0,0,0,150,111V97Z"/><path d="M96,97H92a111.81,111.81,0,0,0,14.71,7.4,112.44,112.44,0,0,0,22.13,6.6H150a110.87,110.87,0,0,1-42.49-8.45A108.14,108.14,0,0,1,96,97Z"/><path d="M88.82,95H61.18c-1.06.68-2.13,1.35-3.21,2H92c-1.08-.65-2.15-1.32-3.21-2Z"/><path d="M57.41,95H19.58A97.63,97.63,0,0,1,0,97H54c1.16-.65,2.31-1.31,3.45-2ZM0,97H0Z"/><path d="M19.58,95H0v2H0a97.73,97.73,0,0,0,19.57-2Z"/><path d="M61.18,95H57.41c-1.14.69-2.29,1.35-3.45,2h4c1.08-.65,2.15-1.32,3.21-2Z"/><path d="M130.42,95H92.59c1.14.69,2.29,1.35,3.45,2H150a97.63,97.63,0,0,1-19.56-2ZM150,97h0Z"/><path d="M150,95H130.42A97.73,97.73,0,0,0,150,97h0V95Z"/><path d="M92.59,95H88.82c1.06.68,2.13,1.35,3.21,2h4c-1.16-.65-2.31-1.31-3.45-2Z"/><path d="M128.87,111H21.13a113,113,0,0,1-21,2H149.91a113,113,0,0,1-21-2ZM150,113h0ZM.09,113h0Z"/><path d="M21.13,111H0v2H.05a113.49,113.49,0,0,0,21.08-2Z"/><path d="M150,111H128.87A113.49,113.49,0,0,0,150,113H150v-2Z"/><path d="M109.31,37h-2.54c-.23.67-.46,1.34-.71,2h5.16l-.11-.11c-.62-.61-1.21-1.25-1.8-1.89Z"/><path d="M43.23,37H40.69c-.59.64-1.18,1.28-1.8,1.89l-.11.11h5.16c-.25-.66-.48-1.33-.71-2Z"/><path d="M87.49,37h-25c.28.67.59,1.33.88,2H86.6c.3-.67.61-1.33.89-2Z"/><path d="M104.66,37h-15a.69.69,0,0,1,0,.13c-.26.63-.55,1.25-.83,1.87h15.14c.25-.66.49-1.33.73-2Z"/><path d="M89.67,37H87.49c-.28.67-.59,1.33-.89,2h2.19c.28-.62.57-1.24.83-1.87a.69.69,0,0,0,0-.13Z"/><path d="M106.77,37h-2.11c-.24.67-.48,1.34-.73,2h2.13c.25-.66.48-1.33.71-2Z"/><path d="M12.32,37H0v2a39.11,39.11,0,0,0,12.32-2Z"/><path d="M40.69,37H37.93l-.45.48c-.52.52-1.06,1-1.6,1.52h2.9l.11-.11c.62-.61,1.21-1.25,1.8-1.89Z"/><path d="M37.93,37H12.32A39.11,39.11,0,0,1,0,39H35.88c.54-.5,1.08-1,1.6-1.52l.45-.48Z"/><path d="M60.33,37h-15c.24.67.48,1.34.73,2H61.21c-.28-.62-.57-1.24-.83-1.87a.69.69,0,0,1-.05-.13Z"/><path d="M62.51,37H60.33a.69.69,0,0,0,.05.13c.26.63.55,1.25.83,1.87h2.18c-.29-.67-.6-1.33-.88-2Z"/><path d="M45.34,37H43.23c.23.67.46,1.34.71,2h2.13c-.25-.66-.49-1.33-.73-2Z"/><path d="M150,37H137.68A39.11,39.11,0,0,0,150,39V37Z"/><path d="M112.07,37h-2.76c.59.64,1.18,1.28,1.8,1.89l.11.11h2.9c-.54-.5-1.08-1-1.6-1.52l-.45-.48Z"/><path d="M137.68,37H112.07l.45.48c.52.52,1.06,1,1.6,1.52H150a39.11,39.11,0,0,1-12.32-2Z"/><path d="M135.34,53H99.8c-.35.67-.72,1.34-1.09,2H150a55.56,55.56,0,0,1-14.66-2Z"/><path d="M78.83,53H71.17c.45.68.93,1.33,1.4,2h4.86c.47-.67.95-1.32,1.4-2Z"/><path d="M50.2,53H14.66A55.56,55.56,0,0,1,0,55H51.29c-.37-.66-.74-1.33-1.09-2Z"/><path d="M97.53,53H81.22c-.44.67-.89,1.34-1.35,2H96.42l1.11-2Z"/><path d="M81.22,53H78.83c-.45.68-.93,1.33-1.4,2h2.44c.46-.66.91-1.33,1.35-2Z"/><path d="M99.8,53H97.53l-1.11,2h2.29c.37-.66.74-1.33,1.09-2Z"/><path d="M14.66,53H0v2a55.56,55.56,0,0,0,14.66-2Z"/><path d="M68.78,53H52.47l1.11,2H70.13c-.46-.66-.91-1.33-1.35-2Z"/><path d="M71.17,53H68.78c.44.67.89,1.34,1.35,2h2.44c-.47-.67-.95-1.32-1.4-2Z"/><path d="M52.47,53H50.2c.35.67.72,1.34,1.09,2h2.29l-1.11-2Z"/><path d="M150,53H135.34A55.56,55.56,0,0,0,150,55V53Z"/><path class="c" d="M78.83,53A93.28,93.28,0,0,0,86.6,39H63.39a94.23,94.23,0,0,0,7.78,14Z"/><path class="c" d="M43.94,39H38.78A55.19,55.19,0,0,1,21,50.82,53.29,53.29,0,0,1,14.66,53H50.2q-2.54-4.76-4.6-9.74C45,41.85,44.47,40.43,43.94,39Z"/><path class="c" d="M111.22,39h-5.16c-.53,1.43-1.07,2.85-1.66,4.26q-2.06,5-4.6,9.74h35.54A53.29,53.29,0,0,1,129,50.82,55.19,55.19,0,0,1,111.22,39Z"/><path class="c" d="M103.93,39H88.79a96.88,96.88,0,0,1-7.57,14H97.53a108.84,108.84,0,0,0,5-10.51C103,41.34,103.49,40.17,103.93,39Z"/><path d="M81.22,53a96.88,96.88,0,0,0,7.57-14H86.6a93.28,93.28,0,0,1-7.77,14Z"/><path d="M106.06,39h-2.13c-.44,1.17-.9,2.34-1.38,3.49a108.84,108.84,0,0,1-5,10.51H99.8q2.53-4.76,4.6-9.74C105,41.85,105.53,40.43,106.06,39Z"/><path d="M38.78,39h-2.9a53.36,53.36,0,0,1-15.6,10A53.15,53.15,0,0,1,0,53H14.66A53.29,53.29,0,0,0,21,50.82,55.19,55.19,0,0,0,38.78,39Z"/><path class="c" d="M35.88,39H0V53a53.15,53.15,0,0,0,20.28-4A53.36,53.36,0,0,0,35.88,39Z"/><path class="c" d="M61.21,39H46.07c.44,1.17.9,2.34,1.38,3.49a108.84,108.84,0,0,0,5,10.51H68.78A96.88,96.88,0,0,1,61.21,39Z"/><path d="M63.39,39H61.21a96.88,96.88,0,0,0,7.57,14h2.39A94.23,94.23,0,0,1,63.39,39Z"/><path d="M46.07,39H43.94c.53,1.43,1.07,2.85,1.66,4.26q2.05,5,4.6,9.74h2.27a108.84,108.84,0,0,1-5-10.51C47,41.34,46.51,40.17,46.07,39Z"/><path d="M114.12,39h-2.9A55.19,55.19,0,0,0,129,50.82,53.29,53.29,0,0,0,135.34,53H150a53.15,53.15,0,0,1-20.28-4A53.36,53.36,0,0,1,114.12,39Z"/><path class="c" d="M114.12,39a53.36,53.36,0,0,0,15.6,10A53.15,53.15,0,0,0,150,53V39Z"/></svg>